<svg width="35" height="36" viewBox="0 0 35 36" fill="none" xmlns="http://www.w3.org/2000/svg">
<path fill-rule="evenodd" clip-rule="evenodd" d="M14.4839 0C13.4968 0 12.6573 0.720221 12.5072 1.69588L11.9055 5.60706C10.9443 6.02353 10.0411 6.54856 9.21134 7.16666L5.51935 5.7339C4.59908 5.37676 3.55588 5.74448 3.06296 6.59975L0.282501 11.4242C-0.210414 12.2795 -0.00559923 13.3664 0.764773 13.9837L3.85501 16.4596C3.79759 16.9651 3.76809 17.4791 3.76809 18C3.76809 18.5083 3.79618 19.01 3.85089 19.5037L0.753846 21.9712C-0.0182083 22.5864 -0.22599 23.6728 0.264589 24.5294L3.03187 29.3614C3.52245 30.218 4.56464 30.5886 5.48589 30.234L9.18181 28.8113C10.0197 29.439 10.9329 29.9715 11.9055 30.3929L12.5072 34.3041C12.6573 35.2798 13.4968 36 14.4839 36H20.0523C21.0394 36 21.8789 35.2798 22.029 34.3041L22.6307 30.3929C23.5919 29.9765 24.4951 29.4514 25.3248 28.8333L29.0168 30.2661C29.9371 30.6232 30.9803 30.2555 31.4732 29.4002L34.2537 24.5758C34.7466 23.7205 34.5418 22.6336 33.7714 22.0163L30.6812 19.5404C30.7386 19.0349 30.7681 18.5209 30.7681 18C30.7681 17.4917 30.74 16.99 30.6853 16.4963L33.7823 14.0288C34.5544 13.4136 34.7622 12.3272 34.2716 11.4706L31.5043 6.63858C31.0137 5.78197 29.9715 5.4114 29.0503 5.76602L25.3544 7.18872C24.5165 6.56104 23.6033 6.02848 22.6307 5.60706L22.029 1.69589C21.8789 0.720222 21.0394 0 20.0523 0H14.4839ZM17.2681 25C21.1341 25 24.2681 21.866 24.2681 18C24.2681 14.134 21.1341 11 17.2681 11C13.4021 11 10.2681 14.134 10.2681 18C10.2681 21.866 13.4021 25 17.2681 25Z" fill="black"/>
</svg>
